{"title":"PRINCE OF DARKNESS.DEWSTRR","uid":4767602,"size":1095766742,"categoryP":"video","categoryS":"movies","magnet":"?xt=urn:btih:a92c33f16a81faec31a37be1fdd6871c2ab3cc6b&amp;dn=PRINCE+OF+DARKNESS.DEWSTRR&amp;tr=udp%3A%2F%2Ftracker.openbittorrent.com%3A80&amp;tr=udp%3A%2F%2Fopen.demonii.com%3A1337&amp;tr=udp%3A%2F%2Ftracker.coppersurfer.tk%3A6969&amp;tr=udp%3A%2F%2Fexodus.desync.com%3A6969","seeders":1,"leechers":0,"uploader":"dewstrr505","files":14,"time":1236932839,"description":"PRINCE OF DARKNESS DVDRIP\n\nHorror | Fantasy | Thriller | Sci-Fi\n\nThe son of the Devil has been kept captive by the church for thousands of years. Now he is breading free. Father Loomis finds a diary and a key, opens the door of the basement and finds a cylinder with a gruesome green fluid.He contacts Professor Howard Birack in the local university and he invites a team of students to research the findings and translate manuscripts. The group discovers that the liquid is the essence of evil, actually Satan's remains, and has been kept locked in the church for centuries. Their research awakes the son of the Devil and a prophecy that &quot;when the sleeper awakens the son will release the father.&quot; Derelicts surround the church trapping them inside,as the son of the Devil tries to bring his father to the world. \n &lt;a href=&quot;\nhttp://www.imdb.com/title/tt0093777/&quot; rel=&quot;nofollow&quot; target=&quot;_NEW&quot;&gt;\nhttp://www.imdb.com/title/tt0093777/&lt;/a&gt;\n\nFormat :      AVI\nFormat/Info :     Audio Video Interleave\nFile size :     1.02 GiB\nDuration :     1h 41mn\nOverall bit rate :     1 438 Kbps\n\nVideo\nFormat :     MPEG-4 Visual\nFormat settings, BVOP :     Yes\nFormat settings, QPel :     No\nFormat settings, GMC :     No warppoints\nFormat settings, Matrix :     Default\nCodec ID :     DX50\nCodec ID/Hint :     DivX 5\nDuration :     1h 41mn\nBit rate :     1 301 Kbps\nWidth :     720 pixels\nHeight :     304 pixels\nDisplay aspect ratio :     2.35\nFrame rate :     23.976 fps\nResolution :     24 bits\nColorimetry :     4:2:0\nScan type :     Progressive\nBits/(Pixel*Frame) :     0.248\nStream size :     945 MiB (90%)\nTitle :     Video\nWriting library :     DivX 6.8.2 (UTC 2008-05-17)\n\nAudio\nFormat :     MPEG Audio\nFormat version :     Version 1\nFormat profile :     Layer 3\nCodec ID :     55\nCodec ID/Hint :     MP3\nDuration :     1h 41mn\nBit rate mode :     Constant\nBit rate :     128 Kbps\nChannel(s) :     2 channels\nSampling rate :     48.0 KHz\nResolution :     16 bits\nStream size :     93.0 MiB (9%)\nAlignment :     Split accross interleaves\nInterleave, duration :     42 ms (1.00 video frame)\nInterleave, preload duration :     500 ms\nTitle :     Audio\nWriting library :     LAME3.92\n\nGeneral\nComplete name : PRINCE OF DARKNESS.DEWSTRRPOD 1.sfv\nFile size :     1.61 KiB\n\nGeneral\nComplete name : PRINCE OF\nFile size :     47.0 Bytes\n[IMG]http://i203.photobucket.com/albums/aa38/476352oop/MOVIES/POD1.jpg[/IMG]\n[IMG]http://i203.photobucket.com/albums/aa38/476352oop/MOVIES/POD2.jpg[/IMG]\n[IMG]http://i203.photobucket.com/albums/aa38/476352oop/MOVIES/POD3.jpg[/IMG]\n[IMG]http://i203.photobucket.com/albums/aa38/476352oop/MOVIES/POD4.jpg[/IMG]\n[IMG]http://i203.photobucket.com/albums/aa38/476352oop/MOVIES/POD5.jpg[/IMG]\n[IMG]http://i203.photobucket.com/albums/aa38/476352oop/MOVIES/POD6.jpg[/IMG]\n[IMG]http://i203.photobucket.com/albums/aa38/476352oop/MOVIES/POD7.jpg[/IMG]\n[IMG]http://i203.photobucket.com/albums/aa38/476352oop/MOVIES/POD8.jpg[/IMG]\n[IMG]http://i203.photobucket.com/albums/aa38/476352oop/MOVIES/POD9.jpg[/IMG]\n[IMG]http://i203.photobucket.com/albums/aa38/476352oop/MOVIES/POD10.jpg[/IMG]\nburned with windows [with a couple of other movies on a disk] and played on my philips divx ultra certified dvd player\nbe sure to set your dvd player on the correct aspect ratio\n","torrent":{"xt":"urn:btih:a92c33f16a81faec31a37be1fdd6871c2ab3cc6b","amp;dn":"PRINCE+OF+DARKNESS.DEWSTRR","amp;tr":["udp%3A%2F%2Ftracker.openbittorrent.com%3A80","udp%3A%2F%2Fopen.demonii.com%3A1337","udp%3A%2F%2Ftracker.coppersurfer.tk%3A6969","udp%3A%2F%2Fexodus.desync.com%3A6969"],"infoHash":"a92c33f16a81faec31a37be1fdd6871c2ab3cc6b","infoHashBuffer":{"type":"Buffer","data":[169,44,51,241,106,129,250,236,49,163,123,225,253,214,135,28,42,179,204,107]},"announce":[],"urlList":[]}}